<svg id="Group_44" data-name="Group 44" xmlns="http://www.w3.org/2000/svg" width="105.091" height="15.87" viewBox="0 0 105.091 15.87">
  <path id="Icon_ionic-ios-star" data-name="Icon ionic-ios-star" d="M18.692,8.868H13.081L11.375,3.779a.618.618,0,0,0-1.16,0L8.51,8.868H2.86a.612.612,0,0,0-.61.61.449.449,0,0,0,.011.1.586.586,0,0,0,.256.431l4.612,3.25L5.359,18.41a.612.612,0,0,0,.21.687.59.59,0,0,0,.343.149.748.748,0,0,0,.381-.137L10.8,15.9l4.5,3.208a.715.715,0,0,0,.381.137.548.548,0,0,0,.34-.149.6.6,0,0,0,.21-.687l-1.77-5.146,4.574-3.281.111-.1a.583.583,0,0,0-.45-1.019Z" transform="translate(-2.25 -3.375)" fill="#ffb703"/>
  <path id="Icon_ionic-ios-star-2" data-name="Icon ionic-ios-star" d="M18.692,8.868H13.081L11.375,3.779a.618.618,0,0,0-1.16,0L8.51,8.868H2.86a.612.612,0,0,0-.61.61.449.449,0,0,0,.011.1.586.586,0,0,0,.256.431l4.612,3.25L5.359,18.41a.612.612,0,0,0,.21.687.59.59,0,0,0,.343.149.748.748,0,0,0,.381-.137L10.8,15.9l4.5,3.208a.715.715,0,0,0,.381.137.548.548,0,0,0,.34-.149.6.6,0,0,0,.21-.687l-1.77-5.146,4.574-3.281.111-.1a.583.583,0,0,0-.45-1.019Z" transform="translate(19.75 -3.375)" fill="#ffb703"/>
  <path id="Icon_ionic-ios-star-3" data-name="Icon ionic-ios-star" d="M18.692,8.868H13.081L11.375,3.779a.618.618,0,0,0-1.16,0L8.51,8.868H2.86a.612.612,0,0,0-.61.61.449.449,0,0,0,.011.1.586.586,0,0,0,.256.431l4.612,3.25L5.359,18.41a.612.612,0,0,0,.21.687.59.59,0,0,0,.343.149.748.748,0,0,0,.381-.137L10.8,15.9l4.5,3.208a.715.715,0,0,0,.381.137.548.548,0,0,0,.34-.149.6.6,0,0,0,.21-.687l-1.77-5.146,4.574-3.281.111-.1a.583.583,0,0,0-.45-1.019Z" transform="translate(41.75 -3.375)" fill="#ffb703"/>
  <path id="Icon_ionic-ios-star-4" data-name="Icon ionic-ios-star" d="M18.692,8.868H13.081L11.375,3.779a.618.618,0,0,0-1.16,0L8.51,8.868H2.86a.612.612,0,0,0-.61.61.449.449,0,0,0,.011.1.586.586,0,0,0,.256.431l4.612,3.25L5.359,18.41a.612.612,0,0,0,.21.687.59.59,0,0,0,.343.149.748.748,0,0,0,.381-.137L10.8,15.9l4.5,3.208a.715.715,0,0,0,.381.137.548.548,0,0,0,.34-.149.6.6,0,0,0,.21-.687l-1.77-5.146,4.574-3.281.111-.1a.583.583,0,0,0-.45-1.019Z" transform="translate(63.75 -3.375)" fill="#ffb703"/>
  <path id="Icon_ionic-ios-star-5" data-name="Icon ionic-ios-star" d="M18.692,8.868H13.081L11.375,3.779a.618.618,0,0,0-1.16,0L8.51,8.868H2.86a.612.612,0,0,0-.61.61.449.449,0,0,0,.011.1.586.586,0,0,0,.256.431l4.612,3.25L5.359,18.41a.612.612,0,0,0,.21.687.59.59,0,0,0,.343.149.748.748,0,0,0,.381-.137L10.8,15.9l4.5,3.208a.715.715,0,0,0,.381.137.548.548,0,0,0,.34-.149.6.6,0,0,0,.21-.687l-1.77-5.146,4.574-3.281.111-.1a.583.583,0,0,0-.45-1.019Z" transform="translate(85.75 -3.375)" fill="#ffb703"/>
</svg>
