<svg xmlns="http://www.w3.org/2000/svg" width="14.749" height="14.749" viewBox="0 0 14.749 14.749">
  <path id="Icon_awesome-globe-africa" data-name="Icon awesome-globe-africa" d="M7.375.563a7.375,7.375,0,1,0,7.375,7.375A7.375,7.375,0,0,0,7.375.563Zm4.758,6.408v.206a.461.461,0,0,1-.255.412l-.458.229a.46.46,0,0,1-.462-.029l-.541-.361a.462.462,0,0,0-.4-.054L9.936,7.4a.461.461,0,0,0-.238.693l.394.591a.461.461,0,0,0,.383.205h.244a.461.461,0,0,1,.461.461v.337a.461.461,0,0,1-.092.277l-.557.743a.463.463,0,0,0-.084.191l-.128.679a.462.462,0,0,1-.142.255,4.746,4.746,0,0,0-.743.867l-.387.581a.825.825,0,0,1-1.425-.089,2.346,2.346,0,0,1-.248-1.049v-.889a.461.461,0,0,0-.461-.461h-.77A1.624,1.624,0,0,1,4.52,9.167V8.749a1.625,1.625,0,0,1,.65-1.3l.82-.615a1.625,1.625,0,0,1,.975-.325h.026a1.621,1.621,0,0,1,.726.172l.438.219a.46.46,0,0,0,.352.025l1.407-.469a.461.461,0,0,0-.146-.9h-.3a.461.461,0,0,1-.326-.135l-.206-.206a.461.461,0,0,0-.326-.135H5.932a.461.461,0,0,1-.461-.461V4.49a.461.461,0,0,1,.349-.447l.43-.107a.462.462,0,0,0,.272-.192l.24-.36a.461.461,0,0,1,.383-.205h.72a.461.461,0,0,0,.461-.461V2.073A5.956,5.956,0,0,1,13.141,6.51h-.548A.461.461,0,0,0,12.132,6.971Z" transform="translate(0 -0.563)"/>
</svg>
