<svg xmlns="http://www.w3.org/2000/svg" width="44.83" height="33.623" viewBox="0 0 44.83 33.623">
  <path id="Icon_awesome-plane-departure" data-name="Icon awesome-plane-departure" d="M43.709,31.389H1.121A1.12,1.12,0,0,0,0,32.51v2.241a1.12,1.12,0,0,0,1.121,1.121H43.709a1.12,1.12,0,0,0,1.121-1.121V32.51A1.12,1.12,0,0,0,43.709,31.389ZM5.642,23.913a2.31,2.31,0,0,0,1.7.75l9.144-.013a4.6,4.6,0,0,0,2.076-.5l5.719-2.9,14.662-7.44a11.907,11.907,0,0,0,4.694-4.084c1.283-1.995,1.422-3.439.916-4.458s-1.733-1.77-4.08-1.923a11.766,11.766,0,0,0-6.044,1.365l-6.9,3.5L12.214,2.462a1.247,1.247,0,0,0-1.261-.078L6.348,4.722a1.28,1.28,0,0,0-.362,2l10.943,6.872L9.7,17.261,4.631,14.706a1.247,1.247,0,0,0-1.126,0L.694,16.135A1.28,1.28,0,0,0,.3,18.1Z" transform="translate(0 -2.25)" fill="#a38059"/>
</svg>
