<svg xmlns="http://www.w3.org/2000/svg" width="15" height="10.5" viewBox="0 0 15 10.5">
  <path id="Icon_awesome-users" data-name="Icon awesome-users" d="M2.25,6.75a1.5,1.5,0,1,0-1.5-1.5A1.5,1.5,0,0,0,2.25,6.75Zm10.5,0a1.5,1.5,0,1,0-1.5-1.5A1.5,1.5,0,0,0,12.75,6.75Zm.75.75H12a1.5,1.5,0,0,0-1.057.436A3.428,3.428,0,0,1,12.7,10.5H14.25A.749.749,0,0,0,15,9.75V9A1.5,1.5,0,0,0,13.5,7.5Zm-6,0A2.625,2.625,0,1,0,4.875,4.875,2.624,2.624,0,0,0,7.5,7.5Zm1.8.75H9.105a3.624,3.624,0,0,1-3.211,0H5.7A2.7,2.7,0,0,0,3,10.95v.675A1.125,1.125,0,0,0,4.125,12.75h6.75A1.125,1.125,0,0,0,12,11.625V10.95A2.7,2.7,0,0,0,9.3,8.25ZM4.057,7.936A1.5,1.5,0,0,0,3,7.5H1.5A1.5,1.5,0,0,0,0,9v.75a.749.749,0,0,0,.75.75H2.295A3.437,3.437,0,0,1,4.057,7.936Z" transform="translate(0 -2.25)" fill="#219ebc"/>
</svg>
