<svg xmlns="http://www.w3.org/2000/svg" width="21.923" height="21.923" viewBox="0 0 21.923 21.923">
  <path id="Icon_material-photo-library" data-name="Icon material-photo-library" d="M24.923,18.346V5.192A2.2,2.2,0,0,0,22.731,3H9.577A2.2,2.2,0,0,0,7.385,5.192V18.346a2.2,2.2,0,0,0,2.192,2.192H22.731A2.2,2.2,0,0,0,24.923,18.346ZM12.865,13.962l2.225,2.971,3.256-4.067,4.385,5.481H9.577ZM3,7.385V22.731a2.2,2.2,0,0,0,2.192,2.192H20.538V22.731H5.192V7.385Z" transform="translate(-3 -3)" fill="#fb911a"/>
</svg>
