<svg xmlns="http://www.w3.org/2000/svg" width="15.667" height="12.186" viewBox="0 0 15.667 12.186">
  <path id="Icon_awesome-images" data-name="Icon awesome-images" d="M13.056,12.695v.435a1.306,1.306,0,0,1-1.306,1.306H1.306A1.306,1.306,0,0,1,0,13.13V6.167A1.306,1.306,0,0,1,1.306,4.861h.435v5.658a2.179,2.179,0,0,0,2.176,2.176Zm2.611-2.176V3.556A1.306,1.306,0,0,0,14.362,2.25H3.917A1.306,1.306,0,0,0,2.611,3.556v6.963a1.306,1.306,0,0,0,1.306,1.306H14.362A1.306,1.306,0,0,0,15.667,10.519Zm-8.7-5.658A1.306,1.306,0,1,1,5.658,3.556,1.306,1.306,0,0,1,6.963,4.861ZM4.352,8.778l1.51-1.51a.326.326,0,0,1,.462,0L7.4,8.343l3.686-3.686a.326.326,0,0,1,.462,0l2.38,2.38v3.046H4.352Z" transform="translate(0 -2.25)" fill="#6e6e6e"/>
</svg>
