<svg xmlns="http://www.w3.org/2000/svg" width="40.366" height="37.319" viewBox="0 0 40.366 37.319">
  <path id="Icon_ionic-ios-color-filter" data-name="Icon ionic-ios-color-filter" d="M40.984,22.2a12.022,12.022,0,0,0-5.912-4.151,11.6,11.6,0,0,0,.133-1.818,11.953,11.953,0,0,0-3.494-8.492,11.86,11.86,0,0,0-16.87,0,11.953,11.953,0,0,0-3.494,8.492,12.878,12.878,0,0,0,.133,1.818A12.049,12.049,0,0,0,6.588,38.016a11.875,11.875,0,0,0,16.689.19,11.875,11.875,0,0,0,16.689-.19A12.066,12.066,0,0,0,40.984,22.2ZM23.277,6.646a9.569,9.569,0,0,1,9.52,9.587,9.093,9.093,0,0,1-.1,1.342c-.39-.038-.781-.057-1.181-.057a11.822,11.822,0,0,0-8.254,3.332,11.8,11.8,0,0,0-8.254-3.332c-.39,0-.79.019-1.181.057a10.482,10.482,0,0,1-.1-1.342A9.591,9.591,0,0,1,23.277,6.646Zm0,19.174c-.171,0-.352-.01-.524-.019a9.082,9.082,0,0,1,.524-1.057A9.081,9.081,0,0,1,23.8,25.8,4.813,4.813,0,0,1,23.277,25.82ZM18.84,38.311a9.371,9.371,0,0,1-3.818.8A9.6,9.6,0,0,1,12.081,20.4a12.069,12.069,0,0,0,2.97,4.532,11.851,11.851,0,0,0,4.684,2.77,11.6,11.6,0,0,0-.133,1.818,12,12,0,0,0,2.114,6.826A9.7,9.7,0,0,1,18.84,38.311Zm1.495-12.957a9.572,9.572,0,0,1-5.836-5.4c.171-.01.352-.019.524-.019a9.4,9.4,0,0,1,3.818.8A9.534,9.534,0,0,1,21.706,22.7,12.105,12.105,0,0,0,20.335,25.354ZM23.277,34.3a9.618,9.618,0,0,1-1.266-4.779,9.093,9.093,0,0,1,.1-1.342c.39.038.781.057,1.181.057s.79-.019,1.181-.057a10.482,10.482,0,0,1,.1,1.342A9.84,9.84,0,0,1,23.277,34.3Zm4.436-13.566a9.371,9.371,0,0,1,3.818-.8c.171,0,.352.01.524.019a9.572,9.572,0,0,1-5.836,5.4A12.321,12.321,0,0,0,24.848,22.7,9.534,9.534,0,0,1,27.713,20.736Zm3.818,18.374a9.4,9.4,0,0,1-3.818-.8,9.534,9.534,0,0,1-2.866-1.961,11.98,11.98,0,0,0,2.114-6.826,12.878,12.878,0,0,0-.133-1.818,11.918,11.918,0,0,0,4.684-2.77,12.225,12.225,0,0,0,2.97-4.532,9.6,9.6,0,0,1-2.951,18.707Z" transform="translate(-3.094 -4.219)" fill="#219ebc"/>
</svg>
