<svg xmlns="http://www.w3.org/2000/svg" width="40.501" height="28.599" viewBox="0 0 40.501 28.599">
  <path id="Icon_awesome-asymmetrik" data-name="Icon awesome-asymmetrik" d="M36.387,21.741c2.728-2.812,4.085-5.625,4.113-8.163.056-4.605-4.177-8.311-11.911-9.492C19.54,2.7,8.3,5.175,0,9.879A42.051,42.051,0,0,1,12,5.787a38.032,38.032,0,0,1,15.56-1.041C38.285,6.42,41.4,13.711,34.509,21.038a17.983,17.983,0,0,1-2.461,2.152L21.438,7.27,8.065,27.345C3.452,25.277,2.686,21,6.722,16.713a20.812,20.812,0,0,1,5.59-4.085,23.957,23.957,0,0,1,4.359-2.159A27.348,27.348,0,0,0,5.309,17C3.361,19.013,2.4,21.016,2.377,22.83c-.035,2.468,1.645,4.577,4.809,5.836L4.76,32.3H11.9l1.547-2.419a30.275,30.275,0,0,0,4.823-.19l-1.6,2.609H26.2l-2.292-3.734a36.7,36.7,0,0,0,3.832-1.315L30.966,32.3h7.144l-5.161-7.763A20.258,20.258,0,0,0,36.387,21.741ZM23.2,27.4l-1.758-2.855-2.3,3.748a27.306,27.306,0,0,1-4.866.309l7.165-11.2,5.534,8.648A32.039,32.039,0,0,1,23.2,27.4Z" transform="translate(0 -3.702)" fill="#fb8500"/>
</svg>
