<svg xmlns="http://www.w3.org/2000/svg" width="25.926" height="25.926" viewBox="0 0 25.926 25.926">
  <path id="Icon_simple-whatsapp" data-name="Icon simple-whatsapp" d="M18.9,15.536c-.325-.162-1.909-.937-2.2-1.044s-.511-.162-.727.162-.833,1.041-1.02,1.255-.377.227-.7.081a8.767,8.767,0,0,1-2.6-1.6,9.8,9.8,0,0,1-1.793-2.236c-.188-.324-.021-.5.14-.664.147-.146.325-.373.487-.565a2.738,2.738,0,0,0,.321-.536.594.594,0,0,0-.027-.566c-.081-.162-.726-1.75-1-2.383s-.526-.551-.726-.551c-.186-.016-.4-.016-.617-.016a1.218,1.218,0,0,0-.861.388A3.606,3.606,0,0,0,6.458,9.931a6.321,6.321,0,0,0,1.317,3.322A14.4,14.4,0,0,0,13.284,18.1c.771.324,1.372.519,1.841.679a4.469,4.469,0,0,0,2.031.131,3.324,3.324,0,0,0,2.178-1.54,2.674,2.674,0,0,0,.194-1.539c-.08-.146-.292-.227-.616-.373M13.029,23.5h-.017A10.806,10.806,0,0,1,7.551,22l-.389-.231L3.111,22.827,4.2,18.889l-.258-.405A10.714,10.714,0,0,1,20.625,5.267a10.573,10.573,0,0,1,3.142,7.551A10.727,10.727,0,0,1,13.035,23.5M22.167,3.726A13.116,13.116,0,0,0,13.012,0,12.844,12.844,0,0,0,1.832,19.269L0,25.926l6.843-1.785A13.03,13.03,0,0,0,13.012,25.7h.006A12.9,12.9,0,0,0,25.926,12.854,12.741,12.741,0,0,0,22.15,3.768" fill="#707070"/>
</svg>
