<svg xmlns="http://www.w3.org/2000/svg" width="36" height="36" viewBox="0 0 36 36">
  <path id="Icon_awesome-street-view" data-name="Icon awesome-street-view" d="M25.868,23.186a4.5,4.5,0,0,1-1.118.96v1.613c4.677.657,7.875,1.972,7.875,3.491,0,2.175-6.548,3.937-14.625,3.937S3.375,31.425,3.375,29.25c0-1.519,3.2-2.834,7.875-3.491V24.146a4.5,4.5,0,0,1-1.118-.96C4.139,24.282,0,26.582,0,29.25,0,32.978,8.059,36,18,36s18-3.022,18-6.75C36,26.582,31.861,24.282,25.868,23.186ZM18,9a4.5,4.5,0,1,0-4.5-4.5A4.5,4.5,0,0,0,18,9ZM13.5,22.5v6.75a2.25,2.25,0,0,0,2.25,2.25h4.5a2.25,2.25,0,0,0,2.25-2.25V22.5a2.25,2.25,0,0,0,2.25-2.25V13.5a3.375,3.375,0,0,0-3.375-3.375h-.83a6.04,6.04,0,0,1-5.091,0h-.83A3.375,3.375,0,0,0,11.25,13.5v6.75A2.25,2.25,0,0,0,13.5,22.5Z" fill="#fff"/>
</svg>
