<svg xmlns="http://www.w3.org/2000/svg" width="19.349" height="19.349" viewBox="0 0 19.349 19.349">
  <g id="Icon_feather-search" data-name="Icon feather-search" transform="translate(1.5 1.5)">
    <path id="Path_1" data-name="Path 1" d="M11.766,3A8.766,8.766,0,1,1,3,11.766,8.776,8.776,0,0,1,11.766,3Zm0,14.532A5.766,5.766,0,1,0,6,11.766,5.773,5.773,0,0,0,11.766,17.532Z" transform="translate(-4.5 -4.5)" fill="#fff"/>
    <path id="Path_2" data-name="Path 2" d="M28.926,30.426a1.5,1.5,0,0,1-1.061-.439l-3.951-3.951a1.5,1.5,0,0,1,2.121-2.121l3.951,3.951a1.5,1.5,0,0,1-1.061,2.561Z" transform="translate(-12.577 -12.577)" fill="#fff"/>
  </g>
</svg>
