<svg xmlns="http://www.w3.org/2000/svg" width="42" height="42" viewBox="0 0 42 42">
  <g id="Group_95" data-name="Group 95" transform="translate(-834 -2585)">
    <path id="Icon_awesome-dollar-sign" data-name="Icon awesome-dollar-sign" d="M9.14,10.2,4.422,8.815A1.288,1.288,0,0,1,4.784,6.29h2.9a2.666,2.666,0,0,1,1.494.459.681.681,0,0,0,.852-.087l1.52-1.485a.708.708,0,0,0-.079-1.07A6.177,6.177,0,0,0,7.689,2.8V.7a.7.7,0,0,0-.7-.7h-1.4a.7.7,0,0,0-.7.7V2.8H4.784A4.786,4.786,0,0,0,.023,8.02a5,5,0,0,0,3.661,4.22l4.478,1.31A1.288,1.288,0,0,1,7.8,16.075H4.9a2.666,2.666,0,0,1-1.494-.459.681.681,0,0,0-.852.087l-1.52,1.485a.708.708,0,0,0,.079,1.07,6.177,6.177,0,0,0,3.779,1.31v2.1a.7.7,0,0,0,.7.7h1.4a.7.7,0,0,0,.7-.7V19.561a4.934,4.934,0,0,0,4.617-3.176A4.8,4.8,0,0,0,9.14,10.2Z" transform="translate(848.785 2594.817)" fill="#fff"/>
    <g id="Ellipse_3" data-name="Ellipse 3" transform="translate(834 2585)" fill="none" stroke="#fff" stroke-width="1">
      <circle cx="21" cy="21" r="21" stroke="none"/>
      <circle cx="21" cy="21" r="20.5" fill="none"/>
    </g>
  </g>
</svg>
