<svg xmlns="http://www.w3.org/2000/svg" width="160" height="160" viewBox="0 0 160 160">
  <g id="Group_15" data-name="Group 15" transform="translate(-593 -2212)">
    <path id="Icon_awesome-helicopter" data-name="Icon awesome-helicopter" d="M44.381,56.06H84.09a4.672,4.672,0,0,0,4.672-4.672,32.7,32.7,0,0,0-32.7-32.7V9.343H81.754A2.335,2.335,0,0,0,84.09,7.007V2.336A2.335,2.335,0,0,0,81.754,0H21.022a2.335,2.335,0,0,0-2.336,2.336V7.007a2.335,2.335,0,0,0,2.336,2.336H46.716v9.343H16.351l-6.307-8.409a2.336,2.336,0,0,0-1.869-.934H2.337a2.335,2.335,0,0,0-2.266,2.9l4.6,15.784L28.03,37.373,40.643,54.191A4.671,4.671,0,0,0,44.381,56.06ZM60.731,28.542A23.4,23.4,0,0,1,78.949,46.717H60.731ZM92.757,66.981,89.523,63.74a2.355,2.355,0,0,0-3.305,0,4.847,4.847,0,0,1-3.6,1.642H35.037a2.338,2.338,0,0,0-2.336,2.34V72.4a2.338,2.338,0,0,0,2.336,2.34H82.621c2.172,0,5.153-.069,9.993-4.31a2.377,2.377,0,0,0,.143-3.454Z" transform="translate(626.284 2254.627)" fill="#fff"/>
    <g id="Ellipse_2" data-name="Ellipse 2" transform="translate(593 2212)" fill="none" stroke="#fb8500" stroke-width="3">
      <circle cx="80" cy="80" r="80" stroke="none"/>
      <circle cx="80" cy="80" r="78.5" fill="none"/>
    </g>
  </g>
</svg>
