<svg xmlns="http://www.w3.org/2000/svg" width="39.924" height="37.071" viewBox="0 0 39.924 37.071">
  <g id="Icon_ionic-md-pricetags" data-name="Icon ionic-md-pricetags" transform="translate(-2.249 -3.375)">
    <path id="Path_3" data-name="Path 3" d="M35.079,7.523V20.088L16.116,38.241a4.062,4.062,0,0,0,2.566,1.1,4.44,4.44,0,0,0,2.8-1.1L38.465,22.227V10.821Z" transform="translate(3.708 1.109)" fill="#a38059"/>
    <path id="Path_4" data-name="Path 4" d="M33.618,3.375H19.36L3.346,20.093a3.647,3.647,0,0,0-1.1,2.531,3.9,3.9,0,0,0,1.1,2.843L14.379,36.48a4.091,4.091,0,0,0,2.566,1.114,4.447,4.447,0,0,0,2.789-1.114l16.735-16V6.227Zm-2.736,9.152a2.855,2.855,0,1,1,1.907-1.907A2.775,2.775,0,0,1,30.882,12.527Z" transform="translate(0)" fill="#a38059"/>
  </g>
</svg>
