<svg xmlns="http://www.w3.org/2000/svg" width="31.5" height="27" viewBox="0 0 31.5 27">
  <path id="Icon_ionic-md-bicycle" data-name="Icon ionic-md-bicycle" d="M23.25,9.225a2.363,2.363,0,1,0-2.362-2.363A2.353,2.353,0,0,0,23.25,9.225Zm3.938,9.15a6.562,6.562,0,1,0,6.563,6.562A6.582,6.582,0,0,0,27.187,18.375Zm0,11.156a4.594,4.594,0,1,1,4.594-4.594A4.565,4.565,0,0,1,27.187,29.531Zm-5.7-13.781H27V13.5H22.862L20.428,9.272a2.264,2.264,0,0,0-1.9-1.115,2.291,2.291,0,0,0-1.575.656l-5.044,4.856a2.291,2.291,0,0,0-.656,1.575,2.364,2.364,0,0,0,1.3,1.9l4.322,2.691v6.037h2.25V18l-2.766-2.25,3.018-3.131ZM8.812,18.375a6.562,6.562,0,1,0,6.562,6.562A6.582,6.582,0,0,0,8.812,18.375Zm0,11.156a4.594,4.594,0,1,1,4.594-4.594A4.565,4.565,0,0,1,8.812,29.531Z" transform="translate(-2.25 -4.5)" fill="#fb8500"/>
</svg>
