<svg xmlns="http://www.w3.org/2000/svg" width="15.983" height="13.7" viewBox="0 0 15.983 13.7">
  <g id="Icon_ionic-ios-bicycle" data-name="Icon ionic-ios-bicycle" transform="translate(-2.25 -4.5)">
    <g id="Group_40" data-name="Group 40" transform="translate(2.25 4.5)">
      <path id="Path_19" data-name="Path 19" d="M5.579,19.372a2.345,2.345,0,1,1-1.645.689,2.314,2.314,0,0,1,1.645-.689m0-1A3.33,3.33,0,1,0,8.907,21.7a3.339,3.339,0,0,0-3.329-3.332Z" transform="translate(-2.25 -11.334)"/>
      <path id="Path_20" data-name="Path 20" d="M21.378,6.776a1.136,1.136,0,0,0,1.142-1.142A1.124,1.124,0,0,0,21.385,4.5a1.138,1.138,0,1,0-.007,2.276Z" transform="translate(-11.11 -4.5)"/>
      <path id="Path_21" data-name="Path 21" d="M23.958,19.372a2.345,2.345,0,1,1-1.645.689,2.314,2.314,0,0,1,1.645-.689m0-1A3.329,3.329,0,1,0,27.287,21.7a3.339,3.339,0,0,0-3.329-3.329Z" transform="translate(-11.304 -11.334)"/>
    </g>
    <path id="Path_22" data-name="Path 22" d="M18.671,10.868H16.958L15.906,8.724a1.116,1.116,0,0,0-1.766-.235l-2.558,2.465a1.162,1.162,0,0,0-.332.8,1.063,1.063,0,0,0,.66.967c1.623.935,2.194,1.038,2.194,1.506v2.351a.571.571,0,1,0,1.142,0V13.365c0-.471-1.085-.856-1.723-1.356l1.745-1.837c.667,1.017.974,1.837,1.356,1.837h2.048a.571.571,0,0,0,0-1.142Z" transform="translate(-4.433 -1.801)"/>
  </g>
</svg>
