<svg xmlns="http://www.w3.org/2000/svg" width="18.272" height="16.967" viewBox="0 0 18.272 16.967">
  <path id="Icon_ionic-ios-star" data-name="Icon ionic-ios-star" d="M19.829,9.248h-6L12.006,3.807a.661.661,0,0,0-1.24,0L8.943,9.248H2.9A.655.655,0,0,0,2.25,9.9a.48.48,0,0,0,.012.11.627.627,0,0,0,.273.461l4.931,3.475-1.893,5.5a.654.654,0,0,0,.224.734.631.631,0,0,0,.367.159.8.8,0,0,0,.408-.147s2.406-3.43,4.813-3.43S16.2,20.2,16.2,20.2a.764.764,0,0,0,.408.147.586.586,0,0,0,.363-.159.646.646,0,0,0,.224-.734l-1.893-5.5,4.89-3.508.118-.1a.684.684,0,0,0,.212-.436A.691.691,0,0,0,19.829,9.248Z" transform="translate(-2.25 -3.375)" fill="#fb8500"/>
</svg>
