<svg xmlns="http://www.w3.org/2000/svg" width="25.393" height="28.002" viewBox="0 0 25.393 28.002">
  <path id="Icon_simple-email" data-name="Icon simple-email" d="M27.045,12.924a14.441,14.441,0,0,1-.465,3.132,9.064,9.064,0,0,1-1.218,2.751A6.427,6.427,0,0,1,23.3,20.762a5.827,5.827,0,0,1-3.015.744,4.371,4.371,0,0,1-2.18-.534,3.734,3.734,0,0,1-1.473-1.51,4.67,4.67,0,0,1-3.951,1.984,4.018,4.018,0,0,1-3.449-1.855,6.072,6.072,0,0,1-.857-2.149,9.267,9.267,0,0,1-.112-2.8,13.022,13.022,0,0,1,.854-3.433,9.332,9.332,0,0,1,1.578-2.63A6.677,6.677,0,0,1,12.861,6.9,6.054,6.054,0,0,1,15.5,6.313a8.205,8.205,0,0,1,1.578.135,6.461,6.461,0,0,1,1.225.367,6.624,6.624,0,0,1,1.015.535c.31.2.621.406.931.616l-.766,8.819a2.931,2.931,0,0,0,.023,1.032,1.444,1.444,0,0,0,.315.637,1.134,1.134,0,0,0,.511.332,1.9,1.9,0,0,0,1.8-.353,3.826,3.826,0,0,0,.962-1.225,7.889,7.889,0,0,0,.647-1.841,12.631,12.631,0,0,0,.283-2.292,14.649,14.649,0,0,0-.36-4.284,8.515,8.515,0,0,0-1.585-3.314,7.361,7.361,0,0,0-2.842-2.135,10.314,10.314,0,0,0-4.14-.758A9.141,9.141,0,0,0,11,3.479,9.4,9.4,0,0,0,7.887,5.953,11.874,11.874,0,0,0,5.85,9.675a16.772,16.772,0,0,0-.857,4.637,15.42,15.42,0,0,0,.437,4.732,8.546,8.546,0,0,0,1.729,3.391,7.214,7.214,0,0,0,2.929,2.037,11.236,11.236,0,0,0,4.042.675,13.845,13.845,0,0,0,2.653-.285c.437-.087.852-.192,1.248-.308a9.39,9.39,0,0,0,1.074-.385l.555,2.5a6.158,6.158,0,0,1-1.2.595,11.571,11.571,0,0,1-1.421.411A13.864,13.864,0,0,1,14.069,28a15.563,15.563,0,0,1-5.41-.871,9.958,9.958,0,0,1-3.944-2.593,10.891,10.891,0,0,1-2.368-4.282,18.264,18.264,0,0,1-.661-5.944,18.128,18.128,0,0,1,1.137-5.7,14.118,14.118,0,0,1,2.74-4.532,12.487,12.487,0,0,1,4.18-2.99A13.088,13.088,0,0,1,15.157,0,13.664,13.664,0,0,1,20.4.94,10.2,10.2,0,0,1,24.19,3.582a10.843,10.843,0,0,1,2.247,4.082A15.61,15.61,0,0,1,27.045,12.924ZM12.018,14.639a5.953,5.953,0,0,0,.308,2.952,1.583,1.583,0,0,0,1.522,1,1.681,1.681,0,0,0,.521-.1,1.86,1.86,0,0,0,.6-.36,3.2,3.2,0,0,0,.609-.735,5.64,5.64,0,0,0,.56-1.242l.6-6.852a3.575,3.575,0,0,0-.931-.122,3.219,3.219,0,0,0-1.549.355,3.066,3.066,0,0,0-1.1,1.043,6.124,6.124,0,0,0-.728,1.715,14.547,14.547,0,0,0-.413,2.345Z" transform="translate(-1.67)" fill="#707070"/>
</svg>
