<svg xmlns="http://www.w3.org/2000/svg" width="16.401" height="18.223" viewBox="0 0 16.401 18.223">
  <path id="Icon_material-date-range_grey" data-name="Icon material-date-range_grey" d="M9.967,11.2H8.145v1.822H9.967Zm3.645,0H11.789v1.822h1.822Zm3.645,0H15.434v1.822h1.822Zm1.822-6.378h-.911V3H16.345V4.822H9.056V3H7.233V4.822H6.322A1.814,1.814,0,0,0,4.509,6.645L4.5,19.4a1.822,1.822,0,0,0,1.822,1.822H19.078A1.828,1.828,0,0,0,20.9,19.4V6.645A1.828,1.828,0,0,0,19.078,4.822Zm0,14.578H6.322V9.378H19.078Z" transform="translate(-4.5 -3)" fill="#afafaf"/>
</svg>
