<svg xmlns="http://www.w3.org/2000/svg" width="35" height="35" viewBox="0 0 35 35">
  <g id="linkedin" transform="translate(-173 -5842)">
    <path id="Icon_awesome-linkedin-in" data-name="Icon awesome-linkedin-in" d="M3.115,13.917H.23V4.626H3.115ZM1.671,3.358A1.679,1.679,0,1,1,3.342,1.672,1.685,1.685,0,0,1,1.671,3.358ZM13.913,13.917H11.034V9.394c0-1.078-.022-2.46-1.5-2.46-1.5,0-1.73,1.171-1.73,2.383v4.6H4.922V4.626H7.69V5.893h.04a3.032,3.032,0,0,1,2.73-1.5c2.92,0,3.457,1.923,3.457,4.42v5.1Z" transform="translate(184 5853)" fill="#fafafa"/>
    <g id="Ellipse_12_linkedin" data-name="Ellipse 12_linkedin" transform="translate(173 5842)" fill="none" stroke="#fff" stroke-width="1">
      <circle cx="17.5" cy="17.5" r="17.5" stroke="none"/>
      <circle cx="17.5" cy="17.5" r="17" fill="none"/>
    </g>
  </g>
</svg>
