<svg xmlns="http://www.w3.org/2000/svg" width="35" height="35" viewBox="0 0 35 35">
  <g id="twitter" transform="translate(-128 -5842)">
    <path id="Icon_awesome-twitter" data-name="Icon awesome-twitter" d="M15.373,6.849c.011.152.011.3.011.457A9.923,9.923,0,0,1,5.392,17.3,9.924,9.924,0,0,1,0,15.72a7.265,7.265,0,0,0,.848.043,7.033,7.033,0,0,0,4.36-1.5,3.518,3.518,0,0,1-3.283-2.435,4.428,4.428,0,0,0,.663.054,3.714,3.714,0,0,0,.924-.12A3.512,3.512,0,0,1,.7,8.317V8.273a3.537,3.537,0,0,0,1.587.446A3.517,3.517,0,0,1,1.2,4.022,9.982,9.982,0,0,0,8.437,7.7a3.964,3.964,0,0,1-.087-.8,3.515,3.515,0,0,1,6.077-2.4,6.914,6.914,0,0,0,2.229-.848,3.5,3.5,0,0,1-1.544,1.935,7.04,7.04,0,0,0,2.022-.544,7.549,7.549,0,0,1-1.761,1.816Z" transform="translate(138.685 5849.619)" fill="#fafafa"/>
    <g id="Ellipse_11_twitter" data-name="Ellipse 11_twitter" transform="translate(128 5842)" fill="none" stroke="#fff" stroke-width="1">
      <circle cx="17.5" cy="17.5" r="17.5" stroke="none"/>
      <circle cx="17.5" cy="17.5" r="17" fill="none"/>
    </g>
  </g>
</svg>
