<svg xmlns="http://www.w3.org/2000/svg" width="35" height="35" viewBox="0 0 35 35">
  <g id="youtube" transform="translate(-263 -5842)">
    <g id="Ellipse_14_youtube" data-name="Ellipse 14_youtube" transform="translate(263 5842)" fill="none" stroke="#fff" stroke-width="1">
      <circle cx="17.5" cy="17.5" r="17.5" stroke="none"/>
      <circle cx="17.5" cy="17.5" r="17" fill="none"/>
    </g>
    <path id="Icon_awesome-youtube" data-name="Icon awesome-youtube" d="M14.625,6.025A1.742,1.742,0,0,0,13.4,4.792,41.169,41.169,0,0,0,7.982,4.5a41.169,41.169,0,0,0-5.417.292A1.742,1.742,0,0,0,1.34,6.025a18.275,18.275,0,0,0-.29,3.359,18.275,18.275,0,0,0,.29,3.359,1.716,1.716,0,0,0,1.226,1.214,41.169,41.169,0,0,0,5.417.292,41.169,41.169,0,0,0,5.417-.292,1.716,1.716,0,0,0,1.226-1.214,18.275,18.275,0,0,0,.29-3.359A18.275,18.275,0,0,0,14.625,6.025Zm-8.06,5.42V7.323l3.624,2.062L6.564,11.446Z" transform="translate(272.95 5850.5)" fill="#fafafa"/>
  </g>
</svg>
